<svg xmlns="http://www.w3.org/2000/svg" viewBox="0 0 512 512">
  <defs>
    <linearGradient id="bg" x1="0" y1="0" x2="1" y2="1">
      <stop offset="0%" stop-color="#16213e"/>
      <stop offset="100%" stop-color="#1a1a2e"/>
    </linearGradient>
    <filter id="glow">
      <feGaussianBlur stdDeviation="3" result="blur"/>
      <feMerge>
        <feMergeNode in="blur"/>
        <feMergeNode in="SourceGraphic"/>
      </feMerge>
    </filter>
  </defs>

  <!-- Background -->
  <rect width="512" height="512" rx="96" fill="url(#bg)"/>

  <!-- District boundary -->
  <polygon
    points="116.6,311.1 79.1,340.4 63.8,342.5 70.2,282.6 80.0,292.0 79.0,310.3 77.9,314.9 92.6,312.4 100.4,275.4 112.5,278.0 115.3,262.9 128.7,261.9 128.3,251.4 138.7,248.6 146.3,238.8 142.2,230.6 151.6,229.0 170.5,232.9 169.3,242.7 171.2,248.7 172.2,255.3 179.6,266.5 196.6,276.6 216.1,264.5 224.7,254.0 258.2,253.7 280.5,241.0 289.1,230.7 308.2,226.4 318.8,208.7 336.3,189.8 324.3,187.0 320.6,163.7 327.7,152.4 325.7,160.9 335.9,172.4 345.3,172.9 354.5,175.5 355.1,138.4 361.6,145.6 368.1,147.5 380.6,150.4 396.2,150.4 410.6,146.5 429.1,153.1 425.0,170.0 435.9,185.5 435.1,195.7 443.4,206.3 450.6,222.0 426.8,234.4 417.1,249.2 418.4,259.2 396.0,283.2 374.1,296.0 362.2,299.7 359.1,297.5 344.8,295.0 342.5,308.8 345.3,313.5 351.8,324.0 340.8,336.8 130.9,322.5"
    fill="rgba(233,69,96,0.15)"
    stroke="#e94560"
    stroke-width="4"
    stroke-linejoin="round"
    filter="url(#glow)"
  />

  <!-- Location pin -->
  <g transform="translate(256, 245)">
    <!-- Pin shadow -->
    <ellipse cx="0" cy="58" rx="16" ry="6" fill="rgba(0,0,0,0.3)"/>
    <!-- Pin body -->
    <path d="M0,-48 C-26,-48 -44,-28 -44,-4 C-44,22 0,56 0,56 C0,56 44,22 44,-4 C44,-28 26,-48 0,-48 Z"
          fill="#e94560" stroke="#fff" stroke-width="3"/>
    <!-- Pin inner circle -->
    <circle cx="0" cy="-6" r="15" fill="#fff"/>
    <circle cx="0" cy="-6" r="8" fill="#e94560"/>
  </g>
</svg>
