<svg xmlns="http://www.w3.org/2000/svg" viewBox="0 0 512 512">
  <defs>
    <linearGradient id="bg" x1="0" y1="0" x2="1" y2="1">
      <stop offset="0%" stop-color="#16213e"/>
      <stop offset="100%" stop-color="#1a1a2e"/>
    </linearGradient>
    <filter id="glow">
      <feGaussianBlur stdDeviation="2" result="blur"/>
      <feMerge>
        <feMergeNode in="blur"/>
        <feMergeNode in="SourceGraphic"/>
      </feMerge>
    </filter>
  </defs>
  <rect width="512" height="512" rx="96" fill="url(#bg)"/>
  <polygon
    points="110.2,313.7 99.6,317.7 76.1,340.4 68.9,345.3 57.3,347.6 52.0,342.7 51.4,295.5 60.9,284.3 63.3,284.0 71.9,293.6 63.5,303.0 71.8,313.7 69.7,315.6 70.5,320.5 72.3,321.0 84.2,315.8 88.0,310.6 89.3,296.9 88.8,282.2 90.1,273.2 99.1,280.3 102.5,280.7 105.6,279.3 108.2,274.6 108.1,263.5 116.8,265.2 120.5,264.4 124.8,258.0 122.5,251.2 130.2,250.2 137.1,247.0 139.3,244.6 141.2,237.4 140.7,234.7 136.4,230.7 138.0,227.6 155.3,226.9 158.8,228.5 162.4,225.5 164.0,225.7 165.8,227.8 166.5,231.9 165.0,239.8 166.7,247.9 168.4,249.5 168.8,258.1 175.2,265.3 178.5,271.9 182.9,274.8 189.4,276.8 206.8,277.5 210.1,276.2 213.2,272.4 214.2,264.9 212.7,253.6 226.5,254.1 230.6,253.2 231.8,267.0 243.4,265.4 249.5,260.5 256.8,258.6 258.7,256.5 259.4,249.9 262.4,246.7 270.7,244.7 280.2,246.5 281.0,240.0 283.5,235.3 282.9,233.7 285.9,231.7 292.6,228.9 307.9,226.4 319.1,218.3 321.7,214.5 321.8,202.8 323.4,199.1 328.2,194.4 337.9,189.1 341.2,184.3 334.9,183.8 331.0,187.4 325.9,181.9 323.1,174.3 324.2,169.5 323.7,154.0 329.0,147.8 332.2,148.1 334.0,149.9 334.6,151.3 330.0,155.0 328.4,158.0 332.0,169.5 335.3,170.2 341.1,168.1 346.3,168.0 348.5,169.8 351.3,167.8 357.0,170.1 356.9,171.9 359.6,171.8 360.3,138.2 359.3,130.7 362.5,130.5 363.0,136.9 366.6,136.9 366.1,146.8 370.0,147.2 370.1,142.6 382.2,143.2 386.4,141.9 385.7,145.4 389.1,145.9 390.6,151.2 396.6,149.4 410.8,140.4 417.0,138.5 418.2,138.6 417.1,141.5 424.4,146.3 426.3,150.3 437.1,148.4 435.2,156.9 435.4,164.9 430.8,166.8 430.1,172.6 431.7,175.1 444.9,177.2 443.3,179.8 444.5,182.0 443.2,183.5 446.1,184.5 443.5,187.8 441.5,200.1 445.1,203.4 452.9,203.9 459.5,208.4 459.9,237.3 461.0,238.7 457.8,239.5 434.7,233.4 426.5,232.6 423.1,254.5 427.1,256.0 424.9,263.3 422.2,269.0 421.1,268.7 415.1,282.1 414.2,281.6 405.5,287.9 402.4,284.4 391.4,281.0 388.4,284.1 388.5,286.7 386.8,288.6 384.2,288.5 384.4,289.9 378.0,300.2 376.6,298.9 373.4,303.7 356.7,297.3 348.9,296.7 348.9,300.1 346.1,305.1 346.5,311.6 351.7,321.2 354.1,321.9 356.2,327.2 358.7,329.2 355.2,333.2 346.7,336.0 336.0,369.7 234.4,381.5 174.4,331.0 125.2,325.5 112.9,313.0 110.2,313.7"
    fill="rgba(233,69,96,0.15)"
    stroke="#e94560"
    stroke-width="3.5"
    stroke-linejoin="round"
    filter="url(#glow)"
  />
  <g transform="translate(256, 250)">
    <ellipse cx="0" cy="48" rx="14" ry="5" fill="rgba(0,0,0,0.3)"/>
    <path d="M0,-38 C-22,-38 -36,-22 -36,-2 C-36,18 0,46 0,46 C0,46 36,18 36,-2 C36,-22 22,-38 0,-38 Z"
          fill="#e94560" stroke="#fff" stroke-width="3"/>
    <circle cx="0" cy="-5" r="12" fill="#fff"/>
    <circle cx="0" cy="-5" r="6" fill="#e94560"/>
  </g>
</svg>