<svg xmlns="http://www.w3.org/2000/svg" viewBox="0 0 512 512">
  <defs>
    <linearGradient id="bg" x1="0" y1="0" x2="1" y2="1">
      <stop offset="0%" stop-color="#16213e"/>
      <stop offset="100%" stop-color="#1a1a2e"/>
    </linearGradient>
    <filter id="glow">
      <feGaussianBlur stdDeviation="3" result="blur"/>
      <feMerge>
        <feMergeNode in="blur"/>
        <feMergeNode in="SourceGraphic"/>
      </feMerge>
    </filter>
  </defs>

  <!-- Background -->
  <rect width="512" height="512" rx="96" fill="url(#bg)"/>

  <!-- District boundary -->
  <polygon
    points="116.6,311.1 106.5,315.0 77.1,341.4 66.0,343.6 60.9,338.9 60.3,293.7 71.7,282.8 80.0,292.0 71.9,300.9 79.9,311.2 78.7,317.7 91.7,313.2 97.4,272.4 106.0,279.3 112.2,278.3 114.6,263.2 126.5,264.0 130.6,257.9 128.3,251.4 144.4,245.1 143.2,228.8 168.1,227.0 172.6,258.0 181.9,271.2 209.0,276.6 215.1,271.7 214.6,253.7 231.7,253.3 232.8,266.5 244.0,264.9 256.8,258.4 262.2,247.1 279.1,247.0 284.6,232.8 305.6,227.7 316.3,220.0 320.4,201.6 337.5,187.4 327.7,190.5 322.9,185.2 320.8,158.5 325.8,152.6 330.6,154.6 325.2,162.3 328.7,173.3 347.1,171.7 355.0,175.5 354.7,136.2 361.8,142.1 361.3,151.6 380.7,146.9 384.7,155.8 409.9,143.7 418.9,155.0 429.1,153.1 422.4,176.2 436.6,180.6 433.4,202.5 450.5,210.4 452.0,239.4 419.0,233.7 415.7,254.6 419.6,256.0 408.1,281.0 399.0,286.5 385.5,279.9 368.3,301.6 344.9,294.9 342.5,309.2 354.2,326.0 342.7,332.5 332.5,364.7 235.4,376.0 178.0,327.7 130.9,322.5"
    fill="rgba(233,69,96,0.15)"
    stroke="#e94560"
    stroke-width="4"
    stroke-linejoin="round"
    filter="url(#glow)"
  />

  <!-- Location pin -->
  <g transform="translate(256, 245)">
    <!-- Pin shadow -->
    <ellipse cx="0" cy="58" rx="16" ry="6" fill="rgba(0,0,0,0.3)"/>
    <!-- Pin body -->
    <path d="M0,-48 C-26,-48 -44,-28 -44,-4 C-44,22 0,56 0,56 C0,56 44,22 44,-4 C44,-28 26,-48 0,-48 Z"
          fill="#e94560" stroke="#fff" stroke-width="3"/>
    <!-- Pin inner circle -->
    <circle cx="0" cy="-6" r="15" fill="#fff"/>
    <circle cx="0" cy="-6" r="8" fill="#e94560"/>
  </g>
</svg>
